<svg xmlns="http://www.w3.org/2000/svg" width="1200" height="300" viewBox="0 0 1200 300" role="img" aria-labelledby="title description">
  <title id="title">RAGLab</title>
  <desc id="description">Local-first retrieval-augmented generation with inspectable evidence.</desc>
  <defs>
    <linearGradient id="background" x1="0" y1="0" x2="1" y2="1">
      <stop offset="0" stop-color="#09100e"/>
      <stop offset="1" stop-color="#101915"/>
    </linearGradient>
    <radialGradient id="glow" cx="82%" cy="0" r="70%">
      <stop offset="0" stop-color="#174331" stop-opacity=".85"/>
      <stop offset="1" stop-color="#174331" stop-opacity="0"/>
    </radialGradient>
    <pattern id="grid" width="48" height="48" patternUnits="userSpaceOnUse">
      <path d="M48 0H0V48" fill="none" stroke="#ffffff" stroke-opacity=".045"/>
    </pattern>
  </defs>

  <rect width="1200" height="300" rx="20" fill="url(#background)"/>
  <rect width="1200" height="300" rx="20" fill="url(#glow)"/>
  <rect width="1200" height="300" rx="20" fill="url(#grid)"/>
  <rect x="1" y="1" width="1198" height="298" rx="19" fill="none" stroke="#29302d" stroke-width="2"/>

  <rect x="72" y="74" width="152" height="152" rx="28" fill="#141a19" stroke="#357957" stroke-width="2"/>
  <path d="M115 118H149M149 118L181 150M115 182H149M149 182L181 150" fill="none" stroke="#76f0ae" stroke-width="5" stroke-linecap="round"/>
  <circle cx="115" cy="118" r="10" fill="#09100e" stroke="#76f0ae" stroke-width="4"/>
  <circle cx="115" cy="182" r="10" fill="#09100e" stroke="#76f0ae" stroke-width="4"/>
  <circle cx="181" cy="150" r="12" fill="#76f0ae"/>

  <g transform="translate(264 70)">
    <text x="0" y="82" fill="#f4f2ed" font-family="Inter, ui-sans-serif, system-ui, sans-serif" font-size="86" font-weight="800">RAG</text>
    <text x="186" y="82" fill="#76f0ae" font-family="Inter, ui-sans-serif, system-ui, sans-serif" font-size="86" font-weight="800">Lab</text>
    <text x="4" y="128" fill="#a7aca8" font-family="ui-monospace, SFMono-Regular, Consolas, monospace" font-size="15" font-weight="700" letter-spacing="2.5">LOCAL-FIRST RAG · INSPECTABLE BY DESIGN</text>
    <g transform="translate(4 153)" font-family="ui-monospace, SFMono-Regular, Consolas, monospace" font-size="13" font-weight="700">
      <rect width="158" height="34" rx="17" fill="#0f2218" stroke="#357957"/>
      <text x="18" y="22" fill="#76f0ae">BOUNDED EVIDENCE</text>
      <rect x="170" width="108" height="34" rx="17" fill="#101513" stroke="#29302d"/>
      <text x="189" y="22" fill="#a7aca8">LOCAL GPU</text>
    </g>
  </g>
</svg>
